<svg width="23" height="20" viewBox="0 0 23 20" fill="none" xmlns="http://www.w3.org/2000/svg">
<path d="M1.49805 19H21.9994M3.07507 1V19M14.1143 1V19M20.4224 5.5V19M6.22913 4.75H7.01764M6.22913 7.75H7.01764M6.22913 10.75H7.01764M10.1717 4.75H10.9602M10.1717 7.75H10.9602M10.1717 10.75H10.9602M6.22913 19V15.625C6.22913 15.0037 6.75867 14.5 7.4119 14.5H9.77744C10.4307 14.5 10.9602 15.0037 10.9602 15.625V19M2.28656 1H14.9028M14.1143 5.5H21.2109M17.2683 9.25H17.2762V9.2575H17.2683V9.25ZM17.2683 12.25H17.2762V12.2575H17.2683V12.25ZM17.2683 15.25H17.2762V15.2575H17.2683V15.25Z" stroke="#0D1A26" stroke-width="1.5" stroke-linecap="round" stroke-linejoin="round"/>
</svg>
