<svg width="20" height="19" viewBox="0 0 20 19" fill="none" xmlns="http://www.w3.org/2000/svg">
<path d="M12.9678 8.3125V4.75C12.9678 3.1104 11.6387 1.78125 9.99908 1.78125C8.35949 1.78125 7.03033 3.1104 7.03033 4.75V8.3125M16.0205 6.73489L17.0205 16.2349C17.0759 16.7608 16.6636 17.2188 16.1348 17.2188H3.86338C3.33461 17.2188 2.92229 16.7608 2.97765 16.2349L3.97765 6.73489C4.02536 6.28161 4.40759 5.9375 4.86338 5.9375H15.1348C15.5906 5.9375 15.9728 6.28161 16.0205 6.73489ZM7.32721 8.3125C7.32721 8.47646 7.19429 8.60938 7.03033 8.60938C6.86637 8.60938 6.73346 8.47646 6.73346 8.3125C6.73346 8.14854 6.86637 8.01562 7.03033 8.01562C7.19429 8.01562 7.32721 8.14854 7.32721 8.3125ZM13.2647 8.3125C13.2647 8.47646 13.1318 8.60938 12.9678 8.60938C12.8039 8.60938 12.671 8.47646 12.671 8.3125C12.671 8.14854 12.8039 8.01562 12.9678 8.01562C13.1318 8.01562 13.2647 8.14854 13.2647 8.3125Z" stroke="#0F172A" stroke-width="1.5" stroke-linecap="round" stroke-linejoin="round"/>
</svg>
