<svg width="42" height="42" viewBox="0 0 42 42" fill="none" xmlns="http://www.w3.org/2000/svg">
<circle cx="20.6731" cy="20.6731" r="20.1731" stroke="#0D1A26"/>
<path d="M28.3028 13.7933C28.0823 13.1428 27.4649 12.6797 26.7372 12.6797H14.609C13.8813 12.6797 13.2749 13.1428 13.0433 13.7933L10.75 20.3976V29.2181C10.75 29.8246 11.2462 30.3207 11.8526 30.3207H12.9551C13.5615 30.3207 14.0577 29.8246 14.0577 29.2181V28.1156H27.2885V29.2181C27.2885 29.8246 27.7846 30.3207 28.391 30.3207H29.4936C30.1 30.3207 30.5962 29.8246 30.5962 29.2181V20.3976L28.3028 13.7933ZM14.9949 14.8848H26.3403L27.531 18.3138H13.8041L14.9949 14.8848ZM28.391 25.9105H12.9551V20.3976H28.391V25.9105Z" fill="#0D1A26"/>
<path d="M15.7115 24.8079C16.6249 24.8079 17.3654 24.0674 17.3654 23.154C17.3654 22.2407 16.6249 21.5002 15.7115 21.5002C14.7981 21.5002 14.0577 22.2407 14.0577 23.154C14.0577 24.0674 14.7981 24.8079 15.7115 24.8079Z" fill="#0D1A26"/>
<path d="M25.6346 24.8079C26.548 24.8079 27.2885 24.0674 27.2885 23.154C27.2885 22.2407 26.548 21.5002 25.6346 21.5002C24.7212 21.5002 23.9808 22.2407 23.9808 23.154C23.9808 24.0674 24.7212 24.8079 25.6346 24.8079Z" fill="#0D1A26"/>
</svg>
