<svg width="42" height="42" viewBox="0 0 42 42" fill="none" xmlns="http://www.w3.org/2000/svg">
<circle cx="20.6731" cy="20.6731" r="20.1731" stroke="#0D1A26"/>
<path fill-rule="evenodd" clip-rule="evenodd" d="M11.6719 14.2227C10.8434 14.2227 10.1719 14.8942 10.1719 15.7227V16.3727H29.5219V15.7227C29.5219 14.8942 28.8503 14.2227 28.0219 14.2227H11.6719ZM29.5219 19.0602H10.1719V25.6227C10.1719 26.4511 10.8434 27.1227 11.6719 27.1227H28.0219C28.8503 27.1227 29.5219 26.4511 29.5219 25.6227V19.0602ZM12.3781 24.1664C12.3781 23.7522 12.7139 23.4164 13.1281 23.4164H14.7406C15.1548 23.4164 15.4906 23.7522 15.4906 24.1664C15.4906 24.5806 15.1548 24.9164 14.7406 24.9164H13.1281C12.7139 24.9164 12.3781 24.5806 12.3781 24.1664ZM17.4281 23.4164C17.0139 23.4164 16.6781 23.7522 16.6781 24.1664C16.6781 24.5806 17.0139 24.9164 17.4281 24.9164H21.1906C21.6048 24.9164 21.9406 24.5806 21.9406 24.1664C21.9406 23.7522 21.6048 23.4164 21.1906 23.4164H17.4281Z" fill="#0D1A26"/>
</svg>
