<svg width="45" height="45" viewBox="0 0 45 45" fill="none" xmlns="http://www.w3.org/2000/svg">
<path d="M13 13H14.3857C14.8954 13 15.3414 13.3427 15.4727 13.8351L15.8559 15.2721M18.25 24.25C16.5931 24.25 15.25 25.5931 15.25 27.25H31M18.25 24.25H29.4683C30.5894 21.9494 31.5677 19.5664 32.3917 17.1125C27.63 15.8965 22.6405 15.25 17.5 15.25C16.9502 15.25 16.4021 15.2574 15.8559 15.2721M18.25 24.25L15.8559 15.2721M16.75 30.25C16.75 30.6642 16.4142 31 16 31C15.5858 31 15.25 30.6642 15.25 30.25C15.25 29.8358 15.5858 29.5 16 29.5C16.4142 29.5 16.75 29.8358 16.75 30.25ZM29.5 30.25C29.5 30.6642 29.1642 31 28.75 31C28.3358 31 28 30.6642 28 30.25C28 29.8358 28.3358 29.5 28.75 29.5C29.1642 29.5 29.5 29.8358 29.5 30.25Z" stroke="white" stroke-width="1.5" stroke-linecap="round" stroke-linejoin="round"/>
<circle cx="22.5" cy="22.5" r="22" stroke="white"/>
</svg>
