<svg width="18" height="16" viewBox="0 0 18 16" fill="none" xmlns="http://www.w3.org/2000/svg">
<path d="M0.833984 1.32031H1.9892C2.41411 1.32031 2.78594 1.58073 2.89542 1.95501L3.21488 3.0471M5.21079 9.87031C3.82951 9.87031 2.70976 10.8911 2.70976 12.1503H15.8402M5.21079 9.87031H14.5632C15.4979 8.12183 16.3135 6.31074 17.0004 4.44581C13.0307 3.52162 8.87107 3.03031 4.58554 3.03031C4.12718 3.03031 3.67028 3.03593 3.21488 3.0471M5.21079 9.87031L3.21488 3.0471M3.96028 14.4303C3.96028 14.7451 3.68034 15.0003 3.33502 15.0003C2.9897 15.0003 2.70976 14.7451 2.70976 14.4303C2.70976 14.1155 2.9897 13.8603 3.33502 13.8603C3.68034 13.8603 3.96028 14.1155 3.96028 14.4303ZM14.5897 14.4303C14.5897 14.7451 14.3097 15.0003 13.9644 15.0003C13.6191 15.0003 13.3392 14.7451 13.3392 14.4303C13.3392 14.1155 13.6191 13.8603 13.9644 13.8603C14.3097 13.8603 14.5897 14.1155 14.5897 14.4303Z" stroke="#0F172A" stroke-width="1.5" stroke-linecap="round" stroke-linejoin="round"/>
</svg>
