<svg width="25" height="24" viewBox="0 0 25 24" fill="none" xmlns="http://www.w3.org/2000/svg">
<path d="M3.19922 18.75C8.66641 18.75 13.9628 19.4812 18.996 20.8512C19.723 21.0491 20.4492 20.5086 20.4492 19.7551V18.75M4.69922 4.5V5.25C4.69922 5.66421 4.36343 6 3.94922 6H3.19922M3.19922 6V5.625C3.19922 5.00368 3.7029 4.5 4.32422 4.5H21.1992M3.19922 6V15M21.1992 4.5V5.25C21.1992 5.66421 21.535 6 21.9492 6H22.6992M21.1992 4.5H21.5742C22.1955 4.5 22.6992 5.00368 22.6992 5.625V15.375C22.6992 15.9963 22.1955 16.5 21.5742 16.5H21.1992M22.6992 15H21.9492C21.535 15 21.1992 15.3358 21.1992 15.75V16.5M21.1992 16.5H4.69922M4.69922 16.5H4.32422C3.7029 16.5 3.19922 15.9963 3.19922 15.375V15M4.69922 16.5V15.75C4.69922 15.3358 4.36343 15 3.94922 15H3.19922M15.9492 10.5C15.9492 12.1569 14.6061 13.5 12.9492 13.5C11.2924 13.5 9.94922 12.1569 9.94922 10.5C9.94922 8.84315 11.2924 7.5 12.9492 7.5C14.6061 7.5 15.9492 8.84315 15.9492 10.5ZM18.9492 10.5H18.9567V10.5075H18.9492V10.5ZM6.94922 10.5H6.95672V10.5075H6.94922V10.5Z" stroke="white" stroke-width="1.5" stroke-linecap="round" stroke-linejoin="round"/>
</svg>
