<svg width="19" height="19" viewBox="0 0 19 19" fill="none" xmlns="http://www.w3.org/2000/svg">
<path d="M6.82813 9.5C6.82813 9.66396 6.69521 9.79688 6.53125 9.79688C6.36729 9.79688 6.23438 9.66396 6.23438 9.5C6.23438 9.33604 6.36729 9.20313 6.53125 9.20313C6.69521 9.20313 6.82813 9.33604 6.82813 9.5ZM6.82813 9.5H6.53125M9.79688 9.5C9.79688 9.66396 9.66396 9.79688 9.5 9.79688C9.33604 9.79688 9.20313 9.66396 9.20313 9.5C9.20313 9.33604 9.33604 9.20313 9.5 9.20313C9.66396 9.20313 9.79688 9.33604 9.79688 9.5ZM9.79688 9.5H9.5M12.7656 9.5C12.7656 9.66396 12.6327 9.79688 12.4688 9.79688C12.3048 9.79688 12.1719 9.66396 12.1719 9.5C12.1719 9.33604 12.3048 9.20313 12.4688 9.20313C12.6327 9.20313 12.7656 9.33604 12.7656 9.5ZM12.7656 9.5H12.4688M16.625 9.5C16.625 13.1071 13.435 16.0313 9.5 16.0313C8.79742 16.0313 8.11859 15.938 7.47743 15.7644C6.70554 16.3067 5.76492 16.625 4.75 16.625C4.59229 16.625 4.43631 16.6173 4.28265 16.6023C4.15625 16.59 4.03101 16.5727 3.9075 16.5506C4.2903 16.0988 4.56219 15.5504 4.68183 14.9473C4.75359 14.5855 4.57639 14.2341 4.31208 13.9768C3.11101 12.8077 2.375 11.2326 2.375 9.5C2.375 5.89289 5.56497 2.96875 9.5 2.96875C13.435 2.96875 16.625 5.89289 16.625 9.5Z" stroke="#0F172A" stroke-width="1.5" stroke-linecap="round" stroke-linejoin="round"/>
</svg>
