<svg width="45" height="45" viewBox="0 0 45 45" fill="none" xmlns="http://www.w3.org/2000/svg">
<path d="M18.875 25.2891L20.0891 27.2923C20.5002 27.9707 21.2213 28.3828 21.9971 28.3828H24.0029C24.7787 28.3828 25.4998 27.9707 25.9109 27.2923L27.125 25.2891M13.4096 19.875H18.0458C18.7981 19.875 19.5007 20.2627 19.9179 20.9082L20.0821 21.1621C20.4993 21.8076 21.2019 22.1953 21.9542 22.1953H24.0458C24.7981 22.1953 25.5007 21.8076 25.9179 21.1621L26.0821 20.9082C26.4993 20.2627 27.2019 19.875 27.9542 19.875H32.5904M13.4096 19.875C13.305 20.146 13.25 20.4371 13.25 20.7333V22.9688C13.25 24.2502 14.2574 25.2891 15.5 25.2891H30.5C31.7426 25.2891 32.75 24.2502 32.75 22.9688V20.7333C32.75 20.4371 32.695 20.146 32.5904 19.875M13.4096 19.875C13.5006 19.6394 13.6291 19.4189 13.7917 19.2233L17.0765 15.2712C17.504 14.7569 18.128 14.4609 18.7849 14.4609H27.2151C27.872 14.4609 28.496 14.7569 28.9235 15.2712L32.2083 19.2233C32.3709 19.4189 32.4994 19.6394 32.5904 19.875M15.5 31.4766H30.5C31.7426 31.4766 32.75 30.4377 32.75 29.1562V26.4492C32.75 25.8085 32.2463 25.2891 31.625 25.2891H14.375C13.7537 25.2891 13.25 25.8085 13.25 26.4492V29.1562C13.25 30.4377 14.2574 31.4766 15.5 31.4766Z" stroke="white" stroke-width="1.5" stroke-linecap="round" stroke-linejoin="round"/>
<circle cx="22.5" cy="22.5" r="22" stroke="white"/>
</svg>
