<svg width="24" height="22" viewBox="0 0 24 22" fill="none" xmlns="http://www.w3.org/2000/svg">
<path d="M10.125 3.5L22.3125 3.5M10.125 3.5C10.125 4.53553 9.28553 5.375 8.25 5.375C7.21447 5.375 6.375 4.53553 6.375 3.5M10.125 3.5C10.125 2.46447 9.28553 1.625 8.25 1.625C7.21447 1.625 6.375 2.46447 6.375 3.5M1.6875 3.5H6.375M10.125 18.5H22.3125M10.125 18.5C10.125 19.5355 9.28553 20.375 8.25 20.375C7.21447 20.375 6.375 19.5355 6.375 18.5M10.125 18.5C10.125 17.4645 9.28553 16.625 8.25 16.625C7.21447 16.625 6.375 17.4645 6.375 18.5M1.6875 18.5L6.375 18.5M17.625 11L22.3125 11M17.625 11C17.625 12.0355 16.7855 12.875 15.75 12.875C14.7145 12.875 13.875 12.0355 13.875 11M17.625 11C17.625 9.96447 16.7855 9.125 15.75 9.125C14.7145 9.125 13.875 9.96447 13.875 11M1.6875 11H13.875" stroke="#0D1A26" stroke-width="1.5" stroke-linecap="round" stroke-linejoin="round"/>
</svg>
