<svg width="36" height="36" viewBox="0 0 36 36" fill="none" xmlns="http://www.w3.org/2000/svg">
<circle cx="18" cy="18" r="18" fill="#B5B5B5"/>
<path d="M23.904 12.1928C23.4172 12.7737 22.9305 13.1222 22.5654 13.5869C21.957 14.4002 21.4702 14.5164 20.4967 13.9355C18.1845 12.6575 16.2375 13.2384 14.2904 15.3297C12.8301 16.8401 12.7084 19.1638 13.8036 21.0227C15.3856 23.5788 20.74 23.6949 22.4437 21.2551C22.9305 20.558 22.6871 19.9771 21.7136 19.8609C21.1051 19.7447 20.375 19.9771 19.6448 19.8609C18.4279 19.7447 17.9411 19.1638 18.0628 18.0019C18.0628 16.8401 18.9147 16.7239 19.8882 16.7239C21.5919 16.7239 23.1739 16.7239 24.8775 16.8401C26.7029 16.9563 26.8246 17.1886 26.4595 18.9314C26.4595 19.1638 26.2162 19.5123 26.2162 19.7447C25.6077 22.7655 24.5125 25.3215 21.1051 26.251C17.4544 27.1804 14.1687 26.3672 11.4915 23.9273C8.57089 21.2551 8.69258 15.3297 11.7349 12.5413C15.3856 8.93961 20.375 8.82344 23.904 12.1928Z" fill="#0D1A26"/>
</svg>
