<svg width="23" height="20" viewBox="0 0 23 20" fill="none" xmlns="http://www.w3.org/2000/svg">
<path d="M11.0578 1.84467C11.3657 1.55178 11.865 1.55178 12.1729 1.84467L21.3085 10.534C21.6164 10.8269 22.1157 10.8269 22.4236 10.534C22.7315 10.2411 22.7315 9.76624 22.4236 9.47335L13.2881 0.784009C12.3642 -0.094671 10.8665 -0.0946688 9.94267 0.78401L0.807122 9.47335C0.499188 9.76624 0.499188 10.2411 0.807122 10.534C1.11506 10.8269 1.61432 10.8269 1.92225 10.534L11.0578 1.84467Z" fill="#0D1A26"/>
<path d="M11.6154 3.43566L20.1933 11.5947C20.2246 11.6244 20.2565 11.6531 20.289 11.6808V17.8787C20.289 18.9142 19.4064 19.7537 18.3177 19.7537H14.7694C14.3339 19.7537 13.9809 19.4179 13.9809 19.0037V14.5037C13.9809 14.0895 13.6279 13.7537 13.1924 13.7537H10.0383C9.60285 13.7537 9.24982 14.0895 9.24982 14.5037V19.0037C9.24982 19.4179 8.89679 19.7537 8.46131 19.7537H4.913C3.82429 19.7537 2.94171 18.9142 2.94171 17.8787V11.6808C2.97423 11.6531 3.00613 11.6244 3.03738 11.5947L11.6154 3.43566Z" fill="#0D1A26"/>
</svg>
