<svg width="23" height="20" viewBox="0 0 23 20" fill="none" xmlns="http://www.w3.org/2000/svg">
<path d="M11.1906 1.84467C11.4985 1.55178 11.9978 1.55178 12.3057 1.84467L21.4413 10.534C21.7492 10.8269 22.2485 10.8269 22.5564 10.534C22.8643 10.2411 22.8643 9.76624 22.5564 9.47335L13.4209 0.784009C12.4971 -0.094671 10.9993 -0.0946688 10.0755 0.78401L0.939935 9.47335C0.632001 9.76624 0.632001 10.2411 0.939935 10.534C1.24787 10.8269 1.74713 10.8269 2.05506 10.534L11.1906 1.84467Z" fill="white"/>
<path d="M11.7482 3.43566L20.3262 11.5947C20.3574 11.6244 20.3893 11.6531 20.4218 11.6808V17.8787C20.4218 18.9142 19.5392 19.7537 18.4505 19.7537H14.9022C14.4667 19.7537 14.1137 19.4179 14.1137 19.0037V14.5037C14.1137 14.0895 13.7607 13.7537 13.3252 13.7537H10.1711C9.73566 13.7537 9.38263 14.0895 9.38263 14.5037V19.0037C9.38263 19.4179 9.0296 19.7537 8.59412 19.7537H5.04581C3.9571 19.7537 3.07452 18.9142 3.07452 17.8787V11.6808C3.10704 11.6531 3.13894 11.6244 3.17019 11.5947L11.7482 3.43566Z" fill="white"/>
</svg>
