<svg width="25" height="24" viewBox="0 0 25 24" fill="none" xmlns="http://www.w3.org/2000/svg">
<path fill-rule="evenodd" clip-rule="evenodd" d="M11.5345 1.21065C11.8956 0.929784 12.4013 0.929784 12.7624 1.21065L21.7624 8.21065C22.006 8.4001 22.1484 8.69141 22.1484 9V20C22.1484 20.7957 21.8324 21.5587 21.2698 22.1213C20.7071 22.6839 19.9441 23 19.1484 23H5.14844C4.35279 23 3.58973 22.6839 3.02712 22.1213C2.46451 21.5587 2.14844 20.7957 2.14844 20V9C2.14844 8.69141 2.29091 8.4001 2.5345 8.21065L11.5345 1.21065ZM4.14844 9.48908V20C4.14844 20.2652 4.25379 20.5196 4.44133 20.7071C4.62887 20.8946 4.88322 21 5.14844 21H19.1484C19.4137 21 19.668 20.8946 19.8555 20.7071C20.0431 20.5196 20.1484 20.2652 20.1484 20V9.48908L12.1484 3.26686L4.14844 9.48908Z" fill="white"/>
<path fill-rule="evenodd" clip-rule="evenodd" d="M8.14844 12C8.14844 11.4477 8.59615 11 9.14844 11H15.1484C15.7007 11 16.1484 11.4477 16.1484 12V22C16.1484 22.5523 15.7007 23 15.1484 23C14.5962 23 14.1484 22.5523 14.1484 22V13H10.1484V22C10.1484 22.5523 9.70072 23 9.14844 23C8.59615 23 8.14844 22.5523 8.14844 22V12Z" fill="white"/>
</svg>
