<svg width="15" height="17" viewBox="0 0 15 17" fill="none" xmlns="http://www.w3.org/2000/svg">
<path fill-rule="evenodd" clip-rule="evenodd" d="M7.20714 16.933L7.2098 16.9342C7.39706 17.02 7.50156 17 7.50156 17C7.50156 17 7.60606 17.02 7.79408 16.9339L7.79599 16.933L7.80143 16.9304L7.81868 16.922C7.83296 16.915 7.85274 16.9052 7.87767 16.8926C7.92752 16.8673 7.99798 16.8306 8.08612 16.7822C8.2623 16.6855 8.50972 16.5419 8.80464 16.3495C9.39323 15.9655 10.1781 15.3826 10.9648 14.5844C12.5386 12.9876 14.1516 10.4925 14.1516 7C14.1516 3.13401 11.1743 0 7.50156 0C3.82887 0 0.851562 3.13401 0.851562 7C0.851562 10.4925 2.4645 12.9876 4.03835 14.5844C4.82507 15.3826 5.60989 15.9655 6.19849 16.3495C6.49341 16.5419 6.74082 16.6855 6.917 16.7822C7.00514 16.8306 7.07561 16.8673 7.12545 16.8926C7.15038 16.9052 7.17017 16.915 7.18445 16.922L7.20169 16.9304L7.20714 16.933ZM7.50156 9.25C8.68207 9.25 9.63906 8.24264 9.63906 7C9.63906 5.75736 8.68207 4.75 7.50156 4.75C6.32105 4.75 5.36406 5.75736 5.36406 7C5.36406 8.24264 6.32105 9.25 7.50156 9.25Z" fill="white"/>
</svg>
