<svg width="23" height="20" viewBox="0 0 23 20" fill="none" xmlns="http://www.w3.org/2000/svg">
<path d="M13.3257 18.9999V11.4999C13.3257 11.0856 13.6788 10.7499 14.1143 10.7499H17.2683C17.7038 10.7499 18.0568 11.0856 18.0568 11.4999V18.9999M13.3257 18.9999H1.61462M13.3257 18.9999H18.0568M18.0568 18.9999H21.8828M20.4224 18.9999V7.34863M3.07507 18.9999V7.34888M3.07507 7.34888C4.28128 8.01202 5.8504 7.85281 6.88235 6.87127C6.92926 6.82665 6.97439 6.78097 7.01773 6.73432C7.59566 7.35708 8.4412 7.74986 9.38318 7.74986C10.3252 7.74986 11.1708 7.35704 11.7487 6.73423C12.3267 7.35704 13.1722 7.74986 14.1143 7.74986C15.0562 7.74986 15.9017 7.35713 16.4796 6.73443C16.5229 6.78101 16.568 6.82662 16.6148 6.87118C17.6468 7.85281 19.2161 8.01196 20.4224 7.34863M3.07507 7.34888C2.84155 7.2205 2.62163 7.06129 2.42185 6.87127C1.19011 5.69969 1.19011 3.8002 2.42185 2.62863L3.67221 1.43934C3.96796 1.15804 4.36908 1 4.78733 1H18.7099C19.1282 1 19.5293 1.15804 19.825 1.43934L21.0753 2.62854C22.307 3.80011 22.307 5.69961 21.0753 6.87118C20.8756 7.06113 20.6558 7.22028 20.4224 7.34863M6.22913 15.9999H10.1717C10.6072 15.9999 10.9602 15.6641 10.9602 15.2499V11.4999C10.9602 11.0856 10.6072 10.7499 10.1717 10.7499H6.22913C5.79364 10.7499 5.44061 11.0856 5.44061 11.4999V15.2499C5.44061 15.6641 5.79364 15.9999 6.22913 15.9999Z" stroke="#0F172A" stroke-width="1.5" stroke-linecap="round" stroke-linejoin="round"/>
</svg>
