<svg width="20" height="19" viewBox="0 0 20 19" fill="none" xmlns="http://www.w3.org/2000/svg">
<g clip-path="url(#clip0_4829_29593)">
<path fill-rule="evenodd" clip-rule="evenodd" d="M9.69008 17.9825L9.69288 17.9836C9.89 18.0606 10 18.0426 10 18.0426C10 18.0426 10.11 18.0606 10.3079 17.9833L10.3099 17.9825L10.3157 17.9801L10.3338 17.9726C10.3488 17.9664 10.3697 17.9576 10.3959 17.9462C10.4484 17.9235 10.5225 17.8905 10.6153 17.8471C10.8008 17.7602 11.0612 17.6313 11.3717 17.4585C11.9912 17.1137 12.8174 16.5903 13.6455 15.8736C15.3022 14.4397 17 12.1992 17 9.06306C17 5.59155 13.866 2.77734 10 2.77734C6.13401 2.77734 3 5.59155 3 9.06306C3 12.1992 4.69783 14.4397 6.35452 15.8736C7.18264 16.5903 8.00877 17.1137 8.62834 17.4585C8.93879 17.6313 9.19922 17.7602 9.38467 17.8471C9.47745 17.8905 9.55163 17.9235 9.60409 17.9462C9.63033 17.9576 9.65116 17.9664 9.66619 17.9726L9.68435 17.9801L9.69008 17.9825ZM10 11.0835C11.2426 11.0835 12.25 10.1789 12.25 9.06306C12.25 7.94722 11.2426 7.04265 10 7.04265C8.75736 7.04265 7.75 7.94722 7.75 9.06306C7.75 10.1789 8.75736 11.0835 10 11.0835Z" fill="#0F172A"/>
</g>
<defs>
<clipPath id="clip0_4829_29593">
<rect y="0.980469" width="20" height="17.9592" rx="8.97959" fill="white"/>
</clipPath>
</defs>
</svg>
