<svg width="35" height="35" viewBox="0 0 35 35" fill="none" xmlns="http://www.w3.org/2000/svg">
<path fill-rule="evenodd" clip-rule="evenodd" d="M15.793 0.414062C24.2843 0.414062 31.168 7.29768 31.168 15.7891C31.168 19.4189 29.9101 22.7549 27.8065 25.3851L34.0843 31.6644C34.7514 32.3316 34.7514 33.4132 34.0843 34.0804C33.4684 34.6962 32.4994 34.7436 31.8293 34.2225L31.6683 34.0804L25.389 27.8026C22.7588 29.9062 19.4228 31.1641 15.793 31.1641C7.30159 31.1641 0.417969 24.2804 0.417969 15.7891C0.417969 7.29768 7.30159 0.414062 15.793 0.414062ZM15.793 3.83073C9.18856 3.83073 3.83464 9.18466 3.83464 15.7891C3.83464 22.3935 9.18856 27.7474 15.793 27.7474C22.3974 27.7474 27.7513 22.3935 27.7513 15.7891C27.7513 9.18466 22.3974 3.83073 15.793 3.83073Z" fill="white"/>
</svg>
