<svg width="22" height="21" viewBox="0 0 22 21" fill="none" xmlns="http://www.w3.org/2000/svg">
<g clip-path="url(#clip0_3845_123438)">
<path fill-rule="evenodd" clip-rule="evenodd" d="M10.582 1.75C14.9313 1.75 18.457 5.27576 18.457 9.625C18.457 11.4842 17.8128 13.1929 16.7353 14.54L19.9508 17.7563C20.2925 18.098 20.2925 18.652 19.9508 18.9937C19.6353 19.3091 19.139 19.3334 18.7957 19.0665L18.7133 18.9937L15.4971 15.7783C14.1499 16.8557 12.4412 17.5 10.582 17.5C6.23279 17.5 2.70703 13.9742 2.70703 9.625C2.70703 5.27576 6.23279 1.75 10.582 1.75ZM10.582 3.5C7.19929 3.5 4.45703 6.24226 4.45703 9.625C4.45703 13.0077 7.19929 15.75 10.582 15.75C13.9648 15.75 16.707 13.0077 16.707 9.625C16.707 6.24226 13.9648 3.5 10.582 3.5Z" fill="#06152B"/>
</g>
<defs>
<clipPath id="clip0_3845_123438">
<rect width="21" height="21" fill="white" transform="translate(0.957031)"/>
</clipPath>
</defs>
</svg>
