<svg width="25" height="24" viewBox="0 0 25 24" fill="none" xmlns="http://www.w3.org/2000/svg">
<path fill-rule="evenodd" clip-rule="evenodd" d="M5.31408 15.4645C6.25176 14.5268 7.52353 14 8.84961 14H16.8496C18.1757 14 19.4475 14.5268 20.3851 15.4645C21.3228 16.4021 21.8496 17.6739 21.8496 19V21C21.8496 21.5523 21.4019 22 20.8496 22C20.2973 22 19.8496 21.5523 19.8496 21V19C19.8496 18.2044 19.5335 17.4413 18.9709 16.8787C18.4083 16.3161 17.6453 16 16.8496 16H8.84961C8.05396 16 7.2909 16.3161 6.72829 16.8787C6.16568 17.4413 5.84961 18.2044 5.84961 19V21C5.84961 21.5523 5.40189 22 4.84961 22C4.29732 22 3.84961 21.5523 3.84961 21V19C3.84961 17.6739 4.37639 16.4021 5.31408 15.4645Z" fill="white"/>
<path fill-rule="evenodd" clip-rule="evenodd" d="M12.8496 4C11.1928 4 9.84961 5.34315 9.84961 7C9.84961 8.65685 11.1928 10 12.8496 10C14.5065 10 15.8496 8.65685 15.8496 7C15.8496 5.34315 14.5065 4 12.8496 4ZM7.84961 7C7.84961 4.23858 10.0882 2 12.8496 2C15.611 2 17.8496 4.23858 17.8496 7C17.8496 9.76142 15.611 12 12.8496 12C10.0882 12 7.84961 9.76142 7.84961 7Z" fill="white"/>
</svg>
