<svg width="19" height="20" viewBox="0 0 19 20" fill="none" xmlns="http://www.w3.org/2000/svg">
<path d="M16.625 10C16.625 9.01624 15.8275 8.21875 14.8438 8.21875H11.875C11.875 9.53043 10.8117 10.5938 9.5 10.5938C8.18832 10.5938 7.125 9.53043 7.125 8.21875H4.15625C3.17249 8.21875 2.375 9.01624 2.375 10M16.625 10V14.75C16.625 15.7338 15.8275 16.5312 14.8438 16.5312H4.15625C3.17249 16.5312 2.375 15.7338 2.375 14.75V10M16.625 10V7.625M2.375 10V7.625M16.625 7.625C16.625 6.64124 15.8275 5.84375 14.8438 5.84375H4.15625C3.17249 5.84375 2.375 6.64124 2.375 7.625M16.625 7.625V5.25C16.625 4.26624 15.8275 3.46875 14.8438 3.46875H4.15625C3.17249 3.46875 2.375 4.26624 2.375 5.25V7.625" stroke="#0F172A" stroke-width="1.5" stroke-linecap="round" stroke-linejoin="round"/>
</svg>
