<svg width="15" height="15" viewBox="0 0 15 15" fill="none" xmlns="http://www.w3.org/2000/svg">
<path fill-rule="evenodd" clip-rule="evenodd" d="M5.09371 1.69079C5.6775 1.01941 6.53902 0.59375 7.5 0.59375C8.46093 0.59375 9.32242 1.01937 9.90621 1.69069C10.7938 1.62867 11.7041 1.93686 12.3837 2.61645C13.0633 3.29603 13.3715 4.20631 13.3095 5.09393C13.9807 5.67771 14.4062 6.53913 14.4062 7.5C14.4062 8.46104 13.9805 9.32261 13.3091 9.9064C13.371 10.7939 13.0628 11.704 12.3833 12.3834C11.7038 13.0629 10.7937 13.3711 9.90627 13.3092C9.32248 13.9806 8.46097 14.4062 7.5 14.4062C6.53908 14.4062 5.6776 13.9806 5.09382 13.3093C4.20619 13.3714 3.2959 13.0632 2.61631 12.3836C1.93672 11.704 1.62852 10.7937 1.69054 9.90608C1.01931 9.32229 0.59375 8.46087 0.59375 7.5C0.59375 6.53909 1.01935 5.67762 1.69064 5.09383C1.6287 4.20628 1.9369 3.29609 2.61642 2.61656C3.29596 1.93703 4.20616 1.62883 5.09371 1.69079ZM10.0573 6.21503C10.2278 5.97628 10.1725 5.64449 9.93378 5.47395C9.69503 5.30342 9.36324 5.35872 9.1927 5.59747L6.90096 8.80591L5.75065 7.6556C5.54318 7.44813 5.20682 7.44813 4.99935 7.6556C4.79188 7.86307 4.79188 8.19943 4.99935 8.4069L6.5931 10.0007C6.70352 10.1111 6.85694 10.1673 7.01257 10.1544C7.1682 10.1416 7.31028 10.0609 7.40105 9.93378L10.0573 6.21503Z" fill="#1BCFB4"/>
</svg>
