<svg width="23" height="21" viewBox="0 0 23 21" fill="none" xmlns="http://www.w3.org/2000/svg">
<g clip-path="url(#clip0_3845_123462)">
<path d="M11 19.5H3C1.89543 19.5 1 18.6046 1 17.5V3C1 1.89543 1.89543 1 3 1H7.2396C7.72943 1 8.20223 1.17976 8.56833 1.50518L11.8287 4.40331C12.2557 4.78285 12.5 5.32686 12.5 5.89813V10" stroke="white"/>
<path fill-rule="evenodd" clip-rule="evenodd" d="M7.95217 0.800781C8.2019 0.800781 8.40435 1.00323 8.40435 1.25296V4.64426C8.40435 4.76418 8.45199 4.8792 8.53679 4.96399C8.62159 5.04879 8.7366 5.09643 8.85652 5.09643H12.2478C12.4976 5.09643 12.7 5.29888 12.7 5.54861C12.7 5.79834 12.4976 6.00078 12.2478 6.00078H8.85652C8.49675 6.00078 8.15171 5.85786 7.89732 5.60346C7.64292 5.34907 7.5 5.00403 7.5 4.64426V1.25296C7.5 1.00323 7.70245 0.800781 7.95217 0.800781Z" fill="white"/>
<path d="M20.5573 19.5573H11.224C10.4876 19.5573 9.89062 18.9604 9.89062 18.224V12.224C9.89062 11.4876 10.4876 10.8906 11.224 10.8906H20.5573C21.2937 10.8906 21.8906 11.4876 21.8906 12.224V18.224C21.8906 18.9604 21.2937 19.5573 20.5573 19.5573Z" stroke="white"/>
<path d="M18.888 15.5573C18.704 15.5573 18.5547 15.408 18.5547 15.224C18.5547 15.0399 18.704 14.8906 18.888 14.8906C19.0721 14.8906 19.2214 15.0399 19.2214 15.224C19.2214 15.408 19.0721 15.5573 18.888 15.5573Z" fill="white" stroke="white" stroke-width="1.5" stroke-linecap="round" stroke-linejoin="round"/>
<path d="M19.8906 10.8902V9.95906C19.8906 9.08302 19.0602 8.44503 18.2138 8.67075L10.8804 10.6263C10.2967 10.782 9.89062 11.3106 9.89062 11.9146V12.2236" stroke="white"/>
<line x1="3" y1="8.5" x2="7" y2="8.5" stroke="white"/>
<line x1="3" y1="10.5" x2="9" y2="10.5" stroke="white"/>
</g>
<defs>
<clipPath id="clip0_3845_123462">
<rect width="23" height="21" fill="white"/>
</clipPath>
</defs>
</svg>
